<svg id="a085b197-7e0e-401d-9771-a9471e0ae305" data-name="Layer 1" xmlns="http://www.w3.org/2000/svg" viewBox="0 0 253 165"><title>AlphaByte</title><polygon points="49 115 12 118 23 93 37 84 49 115" style="fill:#fff"/><path d="M114.34,51.57h-5.08l-11.92,43h6.36l1.4-4.92h13.41l1.4,4.92h6.35ZM107,83l4.81-16.88L116.62,83Z" style="fill:#194880"/><path d="M134.74,88.4V51.57H128.6v43h27.63V88.4Z" style="fill:#194880"/><path d="M183.11,56.06a14.75,14.75,0,0,0-10.85-4.49H160v43h6.14V82.26h6.14a15.35,15.35,0,0,0,15.35-15.34A14.8,14.8,0,0,0,183.11,56.06Zm-4.34,17.36a8.87,8.87,0,0,1-6.51,2.7h-6.14V57.71h6.14a9.2,9.2,0,0,1,6.51,15.71Z" style="fill:#194880"/><path d="M212.67,51.57V76.12H197.32V51.57h-6.14v43h6.14V82.26h15.35V94.54h6.14v-43Z" style="fill:#194880"/><path d="M98,111.13h12.28a15.34,15.34,0,0,1,10.87,26.18A15.32,15.32,0,0,1,118,139.8a9.22,9.22,0,0,1-7.68,14.31H98Zm6.14,24.56h6.14a9.21,9.21,0,0,0,0-18.42h-6.14Zm0,6.14V148h6.14a3.07,3.07,0,0,0,0-6.14Z" style="fill:#194880"/><path d="M142.08,133.45v20.66h-6.14V133.42l-13.2-22.29h7.12l9.18,15.5,9.15-15.5h7.09Z" style="fill:#194880"/><path d="M174.26,117.27v36.84h-6.14V117.27H157.38v-6.14H185v6.14Z" style="fill:#194880"/><path d="M216.39,111.13v6.14H194.9v18.42h21.49v6.14H194.9V148h21.49v6.14H188.76v-43Z" style="fill:#194880"/><path d="M238.21,51.57h-5.08l-11.92,43h6.35l1.4-4.92h13.41l1.4,4.92h6.36ZM230.85,83l4.82-16.88L240.48,83Z" style="fill:#194880"/><polygon points="95.82 56.62 10.25 100.61 16.81 6.96 95.82 56.62" style="fill:#eab716"/><rect x="11.69" y="146.49" width="60.17" height="5.34" transform="translate(-23.75 8.8) rotate(-9.38)" style="fill:#194880"/><polygon points="75.39 110.91 25.5 119.78 42.94 70.73 75.39 110.91" style="fill:#eab716"/><path d="M36.78,53.25,5.92,122.63l75.51-8Zm2,12.82,31.83,45.24-55.29,5Z" style="fill:#194880"/><polygon points="34.77 162.25 29.02 162.13 29.64 115.06 35.39 115.18 34.77 162.25" style="fill:#194880"/><polygon points="50.68 162.21 50.47 113.51 55.32 113.46 55.53 162.16 50.68 162.21" style="fill:#194880"/><rect x="11.76" y="133.09" width="60.17" height="4.5" transform="translate(-21.35 8.55) rotate(-9.31)" style="fill:#194880"/><rect x="10.33" y="2.16" width="4.88" height="25.53" transform="translate(10.63 -4.6) rotate(34.29)" style="fill:#194880"/><path d="M12.06,12.45l7.33,87.7L91.68,50ZM80.62,51l-57,38.53-3.35-67Z" style="fill:#194880"/><polygon points="80.63 50.99 23.66 89.52 20.31 22.5 80.63 50.99" style="fill:#fff"/><path d="M49.52,57.37A19.52,19.52,0,1,1,69,37.86,19.54,19.54,0,0,1,49.52,57.37Zm0-32.78A13.27,13.27,0,1,0,62.79,37.86,13.28,13.28,0,0,0,49.52,24.59Z" style="fill:#194880"/><path d="M52.24,113.06,42.38,80.25c-1.54,1.88-3.87,2.29-6.32,3.28l9.48,31.54Z" style="fill:#194880"/></svg>