<?xml version="1.0" standalone="no"?>
<!DOCTYPE svg PUBLIC "-//W3C//DTD SVG 20010904//EN"
 "http://www.w3.org/TR/2001/REC-SVG-20010904/DTD/svg10.dtd">
<svg version="1.0" xmlns="http://www.w3.org/2000/svg"
 width="600.000000pt" height="600.000000pt" viewBox="0 0 600.000000 600.000000"
 preserveAspectRatio="xMidYMid meet">
<metadata>
Created by potrace 1.11, written by Peter Selinger 2001-2013
</metadata>
<g transform="translate(0.000000,600.000000) scale(0.100000,-0.100000)"
fill="#000000" stroke="none">
<path d="M1847 5728 c-58 -84 -175 -256 -261 -382 l-156 -229 69 -48 c38 -27
73 -49 78 -49 4 1 46 57 93 127 75 111 85 123 91 102 4 -13 21 -202 38 -419
17 -217 66 -810 108 -1318 l76 -923 -21 -47 c-219 -493 -443 -1004 -440 -1006
1 -2 183 16 403 40 220 24 412 43 427 43 l28 1 -7 -267 c-3 -148 -7 -269 -8
-270 -1 -2 -143 -26 -316 -55 -173 -28 -315 -52 -317 -53 -1 -1 3 -38 11 -81
11 -69 15 -79 32 -77 11 2 145 23 298 48 154 25 284 45 290 45 9 0 5 -306 -5
-316 -3 -2 -143 -27 -314 -55 -170 -28 -311 -52 -313 -54 -4 -4 16 -145 25
-176 4 -14 39 -10 292 32 158 27 293 49 300 49 9 0 12 -35 12 -144 l0 -143 77
-7 c42 -3 89 -6 105 -6 l28 0 0 170 c0 94 2 170 4 170 3 0 129 20 280 45 152
25 279 45 281 45 3 0 5 -97 5 -215 l0 -215 29 0 c15 0 56 3 90 6 l61 7 0 223
0 224 23 5 c21 5 562 95 569 95 3 0 -3 43 -11 95 -10 67 -19 95 -29 95 -13 0
-471 -75 -524 -86 l-28 -6 0 160 0 160 58 10 c31 5 161 27 287 47 127 20 235
38 241 40 8 3 8 25 -2 81 -7 42 -15 78 -16 80 -2 1 -129 -18 -282 -42 -152
-25 -279 -44 -280 -42 -2 1 -6 110 -10 240 l-6 237 32 5 c18 3 231 27 473 52
242 25 441 47 443 49 2 2 -213 302 -478 667 -265 364 -491 676 -502 691 -11
16 -16 32 -12 37 5 4 290 202 634 440 700 485 734 510 723 520 -4 4 -183 90
-398 191 -214 100 -396 187 -402 192 -8 6 -13 35 -13 76 -1 253 -160 501 -395
612 -114 55 -191 72 -315 72 -162 -1 -319 -53 -432 -143 -28 -22 -54 -40 -59
-40 -11 0 -692 319 -702 330 -5 4 37 75 92 158 56 83 101 152 101 155 0 5
-137 97 -144 97 -3 0 -52 -69 -109 -152z m413 -654 c113 -53 208 -100 213
-104 4 -3 -4 -31 -17 -61 -75 -162 -82 -356 -22 -531 36 -103 82 -173 171
-263 137 -138 300 -205 499 -205 119 0 201 18 299 64 162 75 284 204 363 384
3 6 463 -213 461 -220 -3 -11 -2058 -1400 -2063 -1395 -3 3 -124 2347 -124
2410 0 9 3 17 8 17 4 0 99 -43 212 -96z m948 11 c125 -30 229 -104 302 -217
33 -50 78 -173 68 -184 -2 -2 -166 73 -363 166 -198 94 -362 170 -365 170 -24
1 135 66 180 73 53 9 118 6 178 -8z m2 -460 c184 -87 338 -160 342 -164 12
-11 -46 -114 -95 -167 -223 -245 -620 -196 -775 94 -77 143 -80 295 -11 439
l20 42 92 -43 c51 -24 243 -114 427 -201z m263 -2125 c211 -300 383 -546 382
-548 -3 -4 -647 -63 -651 -60 -5 6 -314 1041 -314 1054 0 7 39 40 88 74 80 56
88 59 99 43 7 -10 185 -263 396 -563z m-673 -179 c71 -239 130 -439 130 -446
0 -7 -69 -17 -202 -28 -112 -10 -268 -25 -348 -33 -243 -26 -511 -50 -514 -46
-2 1 71 163 163 358 l166 354 230 159 c214 148 231 158 237 138 4 -12 66 -217
138 -456z m338 -868 l-3 -247 -260 -43 c-143 -23 -268 -42 -277 -43 -16 0 -18
14 -18 153 0 83 3 202 6 263 l7 111 236 25 c130 14 253 26 274 27 l37 1 -2
-247z m2 -572 l0 -159 -27 -6 c-93 -18 -535 -87 -539 -84 -2 3 -1 74 3 160 l6
155 266 46 c146 24 272 45 279 46 9 1 12 -37 12 -158z"/>
</g>
</svg>
